<svg width="50" height="45" viewBox="0 0 50 45" fill="none" xmlns="http://www.w3.org/2000/svg">
<rect width="50" height="44.4444" rx="3.49766" fill="#DFE7FF"/>
<path d="M25 20.75C27.0711 20.75 28.75 19.0711 28.75 17C28.75 14.9289 27.0711 13.25 25 13.25C22.9289 13.25 21.25 14.9289 21.25 17C21.25 19.0711 22.9289 20.75 25 20.75Z" stroke="#21409A" stroke-width="1.90633" stroke-linecap="round" stroke-linejoin="round"/>
<path d="M32.5 29.5C32.5 25.3579 29.1421 22 25 22C20.8579 22 17.5 25.3579 17.5 29.5" stroke="#21409A" stroke-width="1.90633" stroke-linecap="round" stroke-linejoin="round"/>
<path d="M32.5 9.5H37.5V14.5" stroke="#21409A" stroke-width="1.90633" stroke-linecap="round" stroke-linejoin="round"/>
<path d="M17.5 9.5H12.5V14.5" stroke="#21409A" stroke-width="1.90633" stroke-linecap="round" stroke-linejoin="round"/>
<path d="M32.5 34.5H37.5V29.5" stroke="#21409A" stroke-width="1.90633" stroke-linecap="round" stroke-linejoin="round"/>
<path d="M17.5 34.5H12.5V29.5" stroke="#21409A" stroke-width="1.90633" stroke-linecap="round" stroke-linejoin="round"/>
</svg>
