<svg width="24" height="25" viewBox="0 0 24 25" fill="none" xmlns="http://www.w3.org/2000/svg">
<g clip-path="url(#clip0)">
<path d="M8.01474 21.8047C8.81732 21.8047 9.46795 21.1331 9.46795 20.3047C9.46795 19.4763 8.81732 18.8047 8.01474 18.8047C7.21215 18.8047 6.56152 19.4763 6.56152 20.3047C6.56152 21.1331 7.21215 21.8047 8.01474 21.8047Z" fill="#192434"/>
<path d="M17.461 21.8047C18.2636 21.8047 18.9142 21.1331 18.9142 20.3047C18.9142 19.4763 18.2636 18.8047 17.461 18.8047C16.6584 18.8047 16.0078 19.4763 16.0078 20.3047C16.0078 21.1331 16.6584 21.8047 17.461 21.8047Z" fill="#192434"/>
<path d="M4.58962 6.80469H20.8864L18.4887 15.4668C18.4019 15.7802 18.2186 16.0559 17.9665 16.2522C17.7144 16.4485 17.4072 16.5547 17.0914 16.5547H8.3846C8.0688 16.5547 7.7616 16.4485 7.50948 16.2522C7.25737 16.0559 7.07406 15.7802 6.9873 15.4668L3.70217 3.59865C3.6588 3.44193 3.56714 3.30407 3.44108 3.20593C3.31503 3.10778 3.16142 3.05469 3.00352 3.05469H1.47559" stroke="#192434" stroke-width="2" stroke-linecap="round" stroke-linejoin="round"/>
</g>
<defs>
<clipPath id="clip0">
<rect width="23.2514" height="24" fill="white" transform="translate(0.749023 0.0546875)"/>
</clipPath>
</defs>
</svg>
