<svg width="24" height="24" viewBox="0 0 24 24" fill="none" xmlns="http://www.w3.org/2000/svg">
<path d="M8.24862 21H3.79696C3.58559 21 3.38288 20.916 3.23342 20.7666C3.08397 20.6171 3 20.4144 3 20.203V15.7514C3 15.6467 3.02061 15.5431 3.06066 15.4464C3.10072 15.3497 3.15942 15.2618 3.23343 15.1878L15.1878 3.23342C15.3373 3.08396 15.54 3 15.7514 3C15.9627 3 16.1655 3.08396 16.3149 3.23342L20.7666 7.68508C20.916 7.83454 21 8.03725 21 8.24862C21 8.45998 20.916 8.66269 20.7666 8.81215L8.81215 20.7666C8.73815 20.8406 8.65029 20.8993 8.5536 20.9393C8.45691 20.9794 8.35328 21 8.24862 21Z" stroke="#616161" stroke-width="2" stroke-linecap="round" stroke-linejoin="round"/>
<path d="M12.5635 5.85779L18.1422 11.4365" stroke="#616161" stroke-width="2" stroke-linecap="round" stroke-linejoin="round"/>
<path d="M8.5279 20.9491L3.05078 15.472" stroke="#616161" stroke-width="2" stroke-linecap="round" stroke-linejoin="round"/>
</svg>
