<svg width="10" height="8" viewBox="0 0 10 8" fill="none" xmlns="http://www.w3.org/2000/svg">
<path d="M9.4917 0.602019C9.42858 0.537995 9.35349 0.487177 9.27075 0.452497C9.18802 0.417818 9.09928 0.399963 9.00965 0.399963C8.92002 0.399963 8.83128 0.417818 8.74854 0.452497C8.6658 0.487177 8.59071 0.537995 8.5276 0.602019L3.46944 5.69785L1.34434 3.55295C1.27881 3.48926 1.20145 3.43918 1.11668 3.40557C1.03191 3.37196 0.941387 3.35548 0.850286 3.35707C0.759184 3.35865 0.669285 3.37827 0.585722 3.41481C0.502158 3.45136 0.426566 3.5041 0.363262 3.57003C0.299958 3.63596 0.250182 3.71379 0.216775 3.79908C0.183368 3.88437 0.166985 3.97544 0.168561 4.0671C0.170137 4.15875 0.189642 4.2492 0.225961 4.33327C0.26228 4.41735 0.314703 4.4934 0.380236 4.55709L2.98739 7.18014C3.05051 7.24417 3.1256 7.29499 3.20834 7.32967C3.29107 7.36434 3.37981 7.3822 3.46944 7.3822C3.55907 7.3822 3.64781 7.36434 3.73055 7.32967C3.81329 7.29499 3.88838 7.24417 3.9515 7.18014L9.4917 1.60616C9.56062 1.54219 9.61562 1.46456 9.65323 1.37815C9.69085 1.29174 9.71027 1.19842 9.71027 1.10409C9.71027 1.00975 9.69085 0.916439 9.65323 0.830029C9.61562 0.743619 9.56062 0.665985 9.4917 0.602019Z" fill="#63EF40"/>
</svg>
