<svg width="20" height="20" viewBox="0 0 20 20" fill="none" xmlns="http://www.w3.org/2000/svg">
<g clip-path="url(#clip0)">
<path d="M20 0H0V20H20V0Z" fill="white" fill-opacity="0.01"/>
<path d="M16.25 2.50006H3.75C3.05964 2.50006 2.5 3.05971 2.5 3.75006V16.2501C2.5 16.9404 3.05964 17.5001 3.75 17.5001H16.25C16.9404 17.5001 17.5 16.9404 17.5 16.2501V3.75006C17.5 3.05971 16.9404 2.50006 16.25 2.50006Z" stroke="#03001F" stroke-width="1.33" stroke-linejoin="round"/>
<path d="M14.1663 10.0001H5.83301" stroke="#03001F" stroke-width="1.33" stroke-linecap="round" stroke-linejoin="round"/>
<path d="M14.1663 6.24988H5.83301" stroke="#03001F" stroke-width="1.33" stroke-linecap="round" stroke-linejoin="round"/>
<path d="M14.1663 13.7499H5.83301" stroke="#03001F" stroke-width="1.33" stroke-linecap="round" stroke-linejoin="round"/>
<path d="M18.474 11.4734C18.412 11.4109 18.3382 11.3613 18.257 11.3275C18.1758 11.2936 18.0886 11.2762 18.0006 11.2762C17.9126 11.2762 17.8255 11.2936 17.7442 11.3275C17.663 11.3613 17.5893 11.4109 17.5273 11.4734L12.5606 16.4467L10.474 14.3534C10.4096 14.2912 10.3336 14.2423 10.2504 14.2095C10.1672 14.1767 10.0783 14.1607 9.98883 14.1622C9.89938 14.1637 9.81111 14.1829 9.72905 14.2186C9.647 14.2542 9.57278 14.3057 9.51062 14.37C9.44846 14.4344 9.39958 14.5104 9.36678 14.5936C9.33398 14.6768 9.31789 14.7657 9.31944 14.8552C9.32099 14.9446 9.34014 15.0329 9.3758 15.1149C9.41146 15.197 9.46294 15.2712 9.52728 15.3334L12.0873 17.8934C12.1493 17.9559 12.223 18.0055 12.3042 18.0393C12.3855 18.0732 12.4726 18.0906 12.5606 18.0906C12.6486 18.0906 12.7358 18.0732 12.817 18.0393C12.8982 18.0055 12.972 17.9559 13.034 17.8934L18.474 12.4534C18.5416 12.391 18.5956 12.3152 18.6326 12.2309C18.6695 12.1465 18.6886 12.0555 18.6886 11.9634C18.6886 11.8713 18.6695 11.7802 18.6326 11.6959C18.5956 11.6116 18.5416 11.5358 18.474 11.4734Z" fill="#03001F"/>
</g>
<defs>
<clipPath id="clip0">
<rect width="20" height="20" rx="7.71898" fill="white"/>
</clipPath>
</defs>
</svg>
