<svg width="19" height="19" viewBox="0 0 19 19" fill="none" xmlns="http://www.w3.org/2000/svg">
<g clip-path="url(#clip0)">
<path d="M17.9888 0.0546875H0.194336V17.6873H17.9888V0.0546875Z" fill="white" fill-opacity="0.01"/>
<path d="M6.49551 2.87805C6.76484 2.87805 7.013 3.02279 7.14375 3.25615L8.05067 4.87498C8.16941 5.08693 8.17501 5.34331 8.06557 5.56015L7.19187 7.29171C7.19187 7.29171 7.44507 8.58162 8.50473 9.63164C9.56442 10.6817 10.8618 10.9282 10.8618 10.9282L12.6089 10.0626C12.8279 9.9541 13.0868 9.95972 13.3008 10.0776L14.9391 10.9802C15.1744 11.1098 15.3203 11.3556 15.3203 11.6223V13.486C15.3203 14.4351 14.4306 15.1206 13.5231 14.8172C11.6591 14.194 8.76579 13.0074 6.93192 11.1901C5.09806 9.37295 3.90054 6.50592 3.27161 4.65894C2.96539 3.75964 3.65718 2.87805 4.61498 2.87805H6.49551Z" stroke="#333333" stroke-width="1.46939" stroke-linejoin="round"/>
</g>
<defs>
<clipPath id="clip0">
<rect width="18.1651" height="18" fill="white" transform="translate(0.00927734 0.0546875)"/>
</clipPath>
</defs>
</svg>
