<svg width="18" height="17" viewBox="0 0 18 17" fill="none" xmlns="http://www.w3.org/2000/svg">
<path d="M13.6171 4.86132C13.554 4.79884 13.479 4.74924 13.3964 4.71539C13.3137 4.68155 13.2251 4.66412 13.1355 4.66412C13.046 4.66412 12.9574 4.68155 12.8747 4.71539C12.7921 4.74924 12.7171 4.79884 12.654 4.86132L7.6012 9.83466L5.47835 7.74132C5.41289 7.67916 5.33561 7.63029 5.25093 7.59748C5.16625 7.56468 5.07582 7.5486 4.98482 7.55014C4.89381 7.55169 4.80401 7.57084 4.72053 7.6065C4.63706 7.64217 4.56155 7.69364 4.49831 7.75799C4.43507 7.82234 4.38535 7.8983 4.35198 7.98153C4.31861 8.06477 4.30224 8.15365 4.30381 8.24311C4.30539 8.33256 4.32487 8.42083 4.36115 8.50289C4.39743 8.58494 4.4498 8.65916 4.51527 8.72132L7.11966 11.2813C7.18271 11.3438 7.25772 11.3934 7.34037 11.4272C7.42302 11.4611 7.51167 11.4785 7.6012 11.4785C7.69074 11.4785 7.77939 11.4611 7.86203 11.4272C7.94468 11.3934 8.01969 11.3438 8.08274 11.2813L13.6171 5.84132C13.6859 5.77889 13.7409 5.70313 13.7784 5.61879C13.816 5.53446 13.8354 5.44339 13.8354 5.35132C13.8354 5.25925 13.816 5.16818 13.7784 5.08385C13.7409 4.99952 13.6859 4.92375 13.6171 4.86132Z" fill="white"/>
<rect x="1.42725" y="0.554688" width="15.2775" height="15" rx="7.5" stroke="white"/>
</svg>
