<svg width="70" height="36" viewBox="0 0 70 36" fill="none" xmlns="http://www.w3.org/2000/svg">
<path d="M0 8C0 3.58172 3.58172 0 8 0H62C66.4183 0 70 3.58172 70 8V28C70 32.4183 66.4183 36 62 36H8C3.58172 36 0 32.4183 0 28V8Z" fill="#EF4056"/>
<path d="M23.0498 20.3887C23.0498 20.0013 22.9131 19.7051 22.6396 19.5C22.3662 19.2904 21.874 19.0716 21.1631 18.8438C20.4521 18.6113 19.8893 18.3835 19.4746 18.1602C18.3444 17.5495 17.7793 16.7269 17.7793 15.6924C17.7793 15.1546 17.9297 14.6761 18.2305 14.2568C18.5358 13.833 18.971 13.5026 19.5361 13.2656C20.1058 13.0286 20.7438 12.9102 21.4502 12.9102C22.1611 12.9102 22.7946 13.04 23.3506 13.2998C23.9066 13.555 24.3372 13.9173 24.6426 14.3867C24.9525 14.8561 25.1074 15.3893 25.1074 15.9863H23.0566C23.0566 15.5306 22.9131 15.1774 22.626 14.9268C22.3389 14.6715 21.9355 14.5439 21.416 14.5439C20.9147 14.5439 20.5251 14.651 20.2471 14.8652C19.9691 15.0749 19.8301 15.3529 19.8301 15.6992C19.8301 16.0228 19.9919 16.2939 20.3154 16.5127C20.6436 16.7314 21.1243 16.9365 21.7578 17.1279C22.9245 17.4788 23.7744 17.9141 24.3076 18.4336C24.8408 18.9531 25.1074 19.6003 25.1074 20.375C25.1074 21.2363 24.7816 21.9131 24.1299 22.4053C23.4782 22.8929 22.6009 23.1367 21.498 23.1367C20.7324 23.1367 20.0352 22.9977 19.4062 22.7197C18.7773 22.4372 18.2965 22.0521 17.9639 21.5645C17.6357 21.0768 17.4717 20.5117 17.4717 19.8691H19.5293C19.5293 20.9674 20.1855 21.5166 21.498 21.5166C21.9857 21.5166 22.3662 21.4186 22.6396 21.2227C22.9131 21.0221 23.0498 20.7441 23.0498 20.3887ZM32.2961 20.9492H28.7004L28.0168 23H25.8361L29.5412 13.0469H31.4416L35.1672 23H32.9865L32.2961 20.9492ZM29.2541 19.2881H31.7424L30.4914 15.5625L29.2541 19.2881ZM39.4164 20.5322L41.6723 13.0469H43.9555L40.4896 23H38.35L34.8979 13.0469H37.1742L39.4164 20.5322ZM51.0621 18.6865H47.1246V21.3525H51.7457V23H45.0738V13.0469H51.732V14.708H47.1246V17.0801H51.0621V18.6865Z" fill="white"/>
</svg>
