<svg width="17" height="16" viewBox="0 0 17 16" fill="none" xmlns="http://www.w3.org/2000/svg">
<path d="M13.9096 3H3.97021V13H13.9096V3Z" fill="white" fill-opacity="0.01"/>
<path d="M4.79834 5.5H13.0812V7.16667L12.7916 7.34148C12.3325 7.61858 11.7591 7.61858 11.3 7.34148L11.0105 7.16667L10.7209 7.34148C10.2618 7.61858 9.68838 7.61858 9.22934 7.34148L8.93975 7.16667L8.65016 7.34148C8.19113 7.61858 7.61767 7.61858 7.15864 7.34148L6.86905 7.16667L6.57946 7.34148C6.12042 7.61858 5.54696 7.61858 5.08793 7.34148L4.79834 7.16667V5.5Z" stroke="#FFDD55" stroke-linecap="round" stroke-linejoin="round"/>
<path d="M5.62695 7.68523V12.1667H12.2532V7.58337" stroke="#FFDD55" stroke-linecap="round" stroke-linejoin="round"/>
<path d="M5.62695 5.463V3.83337H12.2532V5.50004" stroke="#FFDD55" stroke-linecap="round" stroke-linejoin="round"/>
<path d="M9.975 9.66663H7.9043V12.1666H9.975V9.66663Z" stroke="#FFDD55" stroke-linecap="round" stroke-linejoin="round"/>
</svg>
